<?xml version="1.0" standalone="no"?>
<!DOCTYPE svg PUBLIC "-//W3C//DTD SVG 20010904//EN"
 "http://www.w3.org/TR/2001/REC-SVG-20010904/DTD/svg10.dtd">
<svg version="1.0" xmlns="http://www.w3.org/2000/svg"
 width="1024.000000pt" height="1024.000000pt" viewBox="0 0 1024.000000 1024.000000"
 preserveAspectRatio="xMidYMid meet">
<metadata>
Created by potrace 1.14, written by Peter Selinger 2001-2017
</metadata>
<g transform="translate(0.000000,1024.000000) scale(0.100000,-0.100000)"
fill="#000000" stroke="none">
<path d="M2236 10224 c-343 -44 -718 -176 -1016 -358 -334 -204 -662 -535
-860 -868 -128 -215 -225 -450 -284 -688 -76 -306 -69 -18 -73 -3130 -4 -3056
-7 -2900 53 -3170 57 -258 180 -563 318 -790 204 -334 535 -662 868 -860 215
-128 450 -225 688 -284 306 -76 18 -69 3130 -73 3056 -4 2900 -7 3170 53 258
57 563 180 790 318 334 204 662 535 860 868 128 215 225 450 284 688 76 306
69 18 73 3130 4 3056 7 2900 -53 3170 -57 258 -180 563 -318 790 -204 334
-535 662 -868 860 -215 128 -450 225 -688 284 -306 76 -14 70 -3150 72 -2371
2 -2832 0 -2924 -12z m112 -2930 c152 -40 308 -162 349 -274 11 -30 193 -646
404 -1367 211 -722 387 -1313 390 -1313 4 0 9 10 11 23 3 12 51 184 106 382
56 198 178 637 272 975 283 1014 370 1313 395 1356 59 101 207 198 352 230
102 22 236 15 358 -21 165 -48 225 -87 267 -173 l23 -47 0 -1795 0 -1795 -23
-47 c-43 -87 -117 -120 -267 -120 -150 0 -224 33 -267 120 l-23 47 -5 1320 -5
1320 -70 7 c-38 4 -71 6 -72 4 -6 -5 -238 -770 -513 -1686 -161 -536 -300
-991 -310 -1010 -21 -41 -52 -71 -100 -96 -27 -15 -56 -19 -130 -19 -87 0
-100 3 -149 30 -97 53 -93 45 -285 665 -96 311 -235 759 -309 995 -74 237
-183 591 -243 788 -108 357 -108 358 -133 353 -14 -3 -47 -8 -73 -11 l-48 -6
-2 -1327 -3 -1327 -23 -47 c-43 -87 -117 -120 -267 -120 -150 0 -224 33 -267
120 l-23 47 0 1790 0 1790 21 45 c32 69 70 107 137 139 157 75 366 96 525 55z
m5489 -4 c95 -12 176 -40 308 -105 173 -85 268 -177 341 -329 67 -138 69 -163
69 -726 -1 -490 -1 -507 -23 -585 -60 -218 -158 -332 -413 -477 l-77 -43 395
-650 c217 -357 405 -671 418 -697 36 -69 41 -117 18 -169 -47 -106 -223 -221
-339 -222 -66 0 -93 11 -141 55 -17 17 -247 392 -510 834 l-478 803 -225 3
c-219 3 -226 4 -259 27 -55 39 -76 99 -76 216 0 85 4 107 23 147 28 56 62 83
123 97 25 6 191 11 385 11 382 0 410 4 482 65 25 22 54 63 74 103 l33 67 0
421 0 421 -40 79 c-47 93 -98 134 -190 152 -40 8 -230 12 -612 12 l-553 0 -2
-1679 -3 -1679 -30 -43 c-18 -26 -50 -53 -80 -68 -45 -23 -61 -26 -165 -26
-87 0 -126 4 -162 18 -57 22 -113 82 -128 135 -7 28 -9 589 -8 1844 l3 1804
30 59 c26 51 38 64 85 87 30 16 80 32 110 37 74 12 1526 13 1617 1z"/>
</g>
</svg>
